<?xml version="1.0" encoding="UTF-8"?>
<svg version="1.1" xmlns="http://www.w3.org/2000/svg" width="5000" height="2639">
<path d="M0 0 C1650 0 3300 0 5000 0 C5000 870.87 5000 1741.74 5000 2639 C3350 2639 1700 2639 0 2639 C0 1768.13 0 897.26 0 0 Z " fill="#0A6136" transform="translate(0,0)"/>
<path d="M0 0 C832.59 0 1665.18 0 2523 0 C2523 870.87 2523 1741.74 2523 2639 C1690.41 2639 857.82 2639 0 2639 C0 2424.83 0 2210.66 0 1990 C20.46 1989.67 40.92 1989.34 62 1989 C76.03028098 1987.95686729 76.03028098 1987.95686729 89.95068359 1986.40283203 C93.05371693 1985.99290369 96.15960937 1985.63088765 99.26953125 1985.27734375 C110.56158728 1983.95436806 121.58841185 1981.98888075 132.67724609 1979.50292969 C135.79584537 1978.82768116 138.92887153 1978.24218062 142.06445312 1977.65185547 C227.55390933 1961.35264279 311.63831998 1920.06077867 384 1861 C385.85331423 1859.49894691 387.70749732 1857.998966 389.5625 1856.5 C394.05777761 1852.82437414 398.39533107 1849.00755389 402.6875 1845.09765625 C404.66384372 1843.30492554 406.6645673 1841.55204773 408.6875 1839.8125 C418.27864408 1831.43226188 427.47840391 1822.61168606 436.5 1813.625 C437.14582031 1812.98377197 437.79164063 1812.34254395 438.45703125 1811.68188477 C442.24356459 1807.88310203 445.83349223 1803.96531263 449.33886719 1799.90625 C451.78257229 1797.10195114 454.33083278 1794.40027982 456.875 1791.6875 C462.17374466 1785.98515128 467.12898036 1780.07285619 472 1774 C472.9827665 1772.80726658 473.96724931 1771.61594599 474.953125 1770.42578125 C483.36911729 1760.23419782 491.26518177 1749.71531057 499 1739 C499.5141748 1738.29262695 500.02834961 1737.58525391 500.55810547 1736.85644531 C527.74411555 1699.39937837 549.04188878 1658.62123752 569 1617 C568.53674316 1617.72952881 568.07348633 1618.45905762 567.59619141 1619.21069336 C551.54492065 1644.46555904 534.03856265 1668.73699006 514 1691 C513.22084229 1691.8674585 512.44168457 1692.73491699 511.63891602 1693.62866211 C504.97982307 1700.97254463 498.0960601 1708.05974979 491.07397461 1715.05639648 C489.30008997 1716.82487219 487.53168223 1718.59870044 485.76367188 1720.37304688 C480.01181975 1726.12851734 474.22827597 1731.75518404 468 1737 C467.03578125 1737.845625 466.0715625 1738.69125 465.078125 1739.5625 C455.42857932 1747.8792355 445.28052073 1755.48402172 435 1763 C434.20207031 1763.5868457 433.40414062 1764.17369141 432.58203125 1764.77832031 C402.8500179 1786.53674826 370.07946837 1803.79615002 336.04248047 1817.75146484 C333.4283828 1818.82420561 330.82459499 1819.91777898 328.22265625 1821.01953125 C314.87620437 1826.55767945 300.92933719 1830.23727567 287 1834 C285.82872559 1834.31880127 285.82872559 1834.31880127 284.63378906 1834.64404297 C280.8721667 1835.65834085 277.09710138 1836.5964514 273.30029297 1837.46972656 C271.58159067 1837.86592921 269.8647561 1838.27024988 268.14892578 1838.67871094 C254.08469971 1842.00396531 240.08979295 1844.59822132 225.75 1846.3125 C225.07720001 1846.39363037 224.40440002 1846.47476074 223.71121216 1846.55834961 C207.46252752 1848.48785135 191.3441347 1849.21233641 175 1849.1875 C174.13216888 1849.18623108 173.26433777 1849.18496216 172.37020874 1849.18365479 C116.91218259 1849.03060781 63.65812045 1839.46577665 12.0625 1818.875 C10.91458984 1818.41996094 9.76667969 1817.96492188 8.58398438 1817.49609375 C7.49537109 1817.06167969 6.40675781 1816.62726563 5.28515625 1816.1796875 C4.29394775 1815.78507324 3.30273926 1815.39045898 2.28149414 1814.98388672 C0 1814 0 1814 -1 1813 C-1.09843099 1810.87442872 -1.12447105 1808.74551005 -1.1241985 1806.61766094 C-1.12611563 1805.59910221 -1.12611563 1805.59910221 -1.12807148 1804.55996654 C-1.1311695 1802.25142095 -1.12704995 1799.94294192 -1.12304783 1797.63439846 C-1.12378654 1795.96873502 -1.12496413 1794.30307173 -1.12654433 1792.63740888 C-1.12963441 1788.01728735 -1.12642091 1783.39718757 -1.12226619 1778.77706764 C-1.1188498 1773.76704662 -1.12119937 1768.75702793 -1.12284368 1763.74700648 C-1.12492367 1754.95213262 -1.12326304 1746.1572655 -1.11920547 1737.36239243 C-1.11318864 1724.28458582 -1.11286797 1711.2067835 -1.11374746 1698.12897576 C-1.11506369 1676.13366576 -1.11171841 1654.13835829 -1.10573006 1632.14304924 C-1.09981197 1610.35386071 -1.09595585 1588.56467341 -1.09487724 1566.77548409 C-1.09484283 1566.09933897 -1.09480842 1565.42319386 -1.09477296 1564.7265595 C-1.09445977 1558.55121266 -1.09417208 1552.37586583 -1.09391499 1546.20051899 C-1.09327551 1530.84780621 -1.09231614 1515.49509346 -1.09113979 1500.14238071 C-1.09108648 1499.44317406 -1.09103316 1498.7439674 -1.09097823 1498.02357266 C-1.08835533 1463.99317232 -1.08204721 1429.9627728 -1.07543945 1395.93237305 C-1.07314784 1384.11985271 -1.07087249 1372.30733237 -1.06866455 1360.49481201 C-1.0685276 1359.76222001 -1.06839065 1359.029628 -1.06824955 1358.27483623 C-1.06190802 1324.23232294 -1.05818071 1290.1898095 -1.05512976 1256.14729577 C-1.05493169 1253.93782081 -1.0547325 1251.72834584 -1.05453308 1249.51887088 C-1.05321332 1234.87683218 -1.05193867 1220.23479347 -1.05069422 1205.59275476 C-1.04821757 1176.45756488 -1.04547589 1147.32237503 -1.04255217 1118.18718519 C-1.04241293 1116.79962332 -1.04227388 1115.41206144 -1.04213501 1114.02449957 C-1.03339963 1026.7629192 -1.01867857 939.50133974 -1 837 C0.26908221 836.35867195 1.53895614 835.71891045 2.80915833 835.07980347 C3.51623334 834.72336699 4.22330835 834.3669305 4.95180988 833.99969292 C9.70961455 831.67747508 14.72526268 829.95441243 19.6875 828.125 C20.87633789 827.68591309 22.06517578 827.24682617 23.29003906 826.79443359 C33.00627222 823.25924557 42.79091228 820.23809162 52.78222656 817.59082031 C54.75300601 817.06579981 56.71692531 816.5151782 58.6796875 815.9609375 C62.4389716 814.91242969 66.2111333 813.93444111 70 813 C70.91894043 812.773125 71.83788086 812.54625 72.78466797 812.3125 C90.72461059 807.95310246 108.65682533 805.03954687 127 803 C128.0214209 802.88140625 129.0428418 802.7628125 130.09521484 802.640625 C160.06173245 799.26920363 190.74285036 799.94266273 220.63964844 803.59863281 C223.74947575 803.97007688 226.85896543 804.28807791 229.9765625 804.5859375 C256.0384458 807.22716478 282.2267553 813.58060837 307 822 C308.08120117 822.36319336 309.16240234 822.72638672 310.27636719 823.10058594 C370.26825907 843.40215318 426.90221947 875.36329565 473.41015625 918.62109375 C474.80376194 919.9011931 476.20451217 921.17456281 477.64379883 922.40307617 C483.68844795 927.56367867 489.29499935 933.1430923 494.90014648 938.76977539 C496.5592732 940.43426277 498.22368051 942.09333447 499.88867188 943.75195312 C505.46926865 949.32869392 510.90513072 954.97086169 516 961 C516.98428662 962.13011879 517.96993384 963.2590542 518.95703125 964.38671875 C532.34946525 979.82300585 544.13806289 996.38013248 556 1013 C544.13990748 989.62565978 531.26164112 966.99713784 517 945 C516.30648437 943.93007813 515.61296875 942.86015625 514.8984375 941.7578125 C501.7182569 921.74346418 487.44060623 902.33040777 472 884 C471.13390387 882.95981082 470.26803127 881.91943551 469.40234375 880.87890625 C463.99862896 874.4115058 458.4428543 868.12030808 452.703125 861.94921875 C451.31047059 860.44902345 449.94765054 858.93833325 448.62280273 857.37768555 C442.94983946 850.69945494 436.72285255 844.57224781 430.52124023 838.39086914 C428.56704376 836.4420313 426.61824853 834.48790728 424.66992188 832.53320312 C418.61658871 826.47629377 412.56040678 820.51262281 406 815 C404.83130556 813.97887869 403.6646374 812.95543364 402.5 811.9296875 C366.2684118 780.24503003 326.54698253 753.46887995 284 731 C283.09926758 730.52095215 282.19853516 730.0419043 281.27050781 729.54833984 C246.39079008 711.12331913 208.21749961 695.76444346 169.78588867 686.68725586 C166.44657171 685.86347379 163.13682377 684.94633796 159.8203125 684.03515625 C152.1385808 681.95269535 144.38620593 680.3975148 136.5625 678.9375 C135.1840894 678.67706787 133.80575348 678.41624016 132.42749023 678.1550293 C129.76982729 677.6519309 127.11166501 677.15179656 124.453125 676.65332031 C121.72521537 676.13720845 119.00206003 675.60657342 116.28125 675.0546875 C77.87972893 667.39051838 39.102825 668 0 668 C0 447.56 0 227.12 0 0 Z " fill="#FEFEFE" transform="translate(2477,0)"/>
<path d="M0 0 C0.95144897 0.00027191 1.90289795 0.00054382 2.88317871 0.00082397 C19.54112546 0.02255294 36.03305115 0.60912987 52.625 2.1875 C53.5840625 2.27338379 54.543125 2.35926758 55.53125 2.44775391 C85.78972269 5.26854903 117.90529076 11.03795527 146.9375 20.1875 C147.70126953 20.42210937 148.46503906 20.65671875 149.25195312 20.8984375 C150.84245651 21.38782316 152.431879 21.88073396 154.02026367 22.37695312 C155.89353727 22.95988202 157.76897318 23.5358788 159.64575195 24.10742188 C232.00398534 46.15488118 299.63566535 82.50278468 357.89697266 130.76367188 C359.4558644 132.04813877 361.02980439 133.31428937 362.60546875 134.578125 C368.23522401 139.0949272 373.59788543 143.82876698 378.86010742 148.76391602 C381.54867974 151.28480191 384.26741271 153.7369024 387.078125 156.12109375 C393.22538254 161.4738078 398.90980382 167.32377795 404.66137695 173.09350586 C406.68264268 175.1201298 408.70919574 177.14135547 410.73632812 179.16210938 C416.91179275 185.33438931 422.99772692 191.50399545 428.625 198.1875 C430.07945517 199.79518373 431.53720895 201.39989715 433 203 C437.73071502 208.24925883 442.19583694 213.68308996 446.625 219.1875 C447.53874442 220.30885302 448.45282139 221.42993511 449.3671875 222.55078125 C467.15821531 244.45503003 483.89616695 267.55039243 498.24462891 291.859375 C499.72362867 294.35384648 501.22588548 296.83338339 502.73046875 299.3125 C510.47867317 312.15670603 517.52181284 325.29303306 524.29736328 338.67407227 C525.61889822 341.26109193 525.61889822 341.26109193 527.35498047 343.88647461 C527.77408691 344.64581299 528.19319336 345.40515137 528.625 346.1875 C528.295 346.8475 527.965 347.5075 527.625 348.1875 C526.59052734 346.66382813 526.59052734 346.66382813 525.53515625 345.109375 C519.76292466 336.63916267 513.88319207 328.30824923 507.625 320.1875 C507.0072168 319.38046631 507.0072168 319.38046631 506.37695312 318.55712891 C499.14287921 309.12291748 491.52496634 300.07004922 483.625 291.1875 C483.16609375 290.66929687 482.7071875 290.15109375 482.234375 289.6171875 C475.22798637 281.74530381 467.81256429 274.27380431 460.375 266.8125 C459.66707809 266.10055984 459.66707809 266.10055984 458.94485474 265.37423706 C453.34849146 259.75378143 447.67184633 254.32022998 441.625 249.1875 C440.61544243 248.31040546 439.60629815 247.43283488 438.59765625 246.5546875 C429.86850222 239.07925089 420.83668073 232.05739908 411.625 225.1875 C410.89619629 224.64303223 410.16739258 224.09856445 409.41650391 223.53759766 C375.45974016 198.28577224 338.08468893 178.36003696 298.625 163.1875 C297.19148193 162.62724121 297.19148193 162.62724121 295.72900391 162.05566406 C282.10024487 156.75012285 268.28946997 152.59205306 254.1015625 149.05517578 C251.77862608 148.47542044 249.45827905 147.8851924 247.140625 147.28466797 C224.57967686 141.47360878 201.89122991 138.66683773 178.73675537 136.39599609 C176.94696979 136.21928846 175.1581729 136.0326108 173.36962891 135.84375 C164.05882897 134.93806163 154.72163195 134.94481323 145.375 134.9375 C144.47649323 134.93649292 143.57798645 134.93548584 142.6522522 134.93444824 C125.4706329 134.9473649 108.6843677 136.09156966 91.625 138.1875 C90.46355469 138.32140137 89.30210937 138.45530273 88.10546875 138.59326172 C73.65238026 140.28122859 59.49291596 142.91170842 45.3125 146.125 C44.58614349 146.28817719 43.85978699 146.45135437 43.11141968 146.61947632 C34.17657884 148.64425326 25.52706227 151.09787848 16.86547852 154.08276367 C13.18677726 155.33689787 9.5029656 156.36900813 5.75 157.375 C-5.86131431 160.95382975 -17.0936971 165.67497884 -28.375 170.1875 C-28.375 492.2675 -28.375 814.3475 -28.375 1146.1875 C-7.06283196 1154.80273811 -7.06283196 1154.80273811 14.625 1162.1875 C15.40665527 1162.42919922 16.18831055 1162.67089844 16.99365234 1162.91992188 C73.2802563 1180.15622533 133.09784615 1185.542445 191.625 1179.1875 C193.04159912 1179.04272217 193.04159912 1179.04272217 194.48681641 1178.89501953 C210.78563042 1177.19157389 226.66929393 1173.86799436 242.625 1170.1875 C243.78539795 1169.92283936 243.78539795 1169.92283936 244.96923828 1169.65283203 C249.54898772 1168.59802744 254.09003621 1167.41798935 258.625 1166.1875 C259.63498047 1165.91711914 260.64496094 1165.64673828 261.68554688 1165.36816406 C276.14626641 1161.47045158 290.21293249 1157.23309622 303.97851562 1151.31640625 C306.92785275 1150.05831263 309.89231388 1148.8406834 312.859375 1147.625 C342.40253526 1135.44844199 370.42498897 1120.53063795 396.625 1102.1875 C397.49439209 1101.58180176 397.49439209 1101.58180176 398.38134766 1100.96386719 C411.67439506 1091.68224552 424.35058578 1081.776228 436.625 1071.1875 C437.36492187 1070.54941406 438.10484375 1069.91132812 438.8671875 1069.25390625 C440.79664998 1067.57628124 442.71110893 1065.88286165 444.625 1064.1875 C445.31239258 1063.58421875 445.99978516 1062.9809375 446.70800781 1062.359375 C453.51067174 1056.32535739 459.99269324 1050.0060019 466.4206543 1043.57714844 C468.18324523 1041.81674948 469.95371039 1040.06453618 471.72460938 1038.3125 C477.75110198 1032.31508195 483.44351287 1026.26013579 488.70751953 1019.57250977 C490.68665529 1017.11081163 492.77856339 1014.8046128 494.9375 1012.5 C500.4252471 1006.46062494 505.21932617 999.93951934 510.03369141 993.36132812 C511.62387903 991.18903132 513.22394636 989.02424882 514.82421875 986.859375 C523.99596004 974.37600075 532.76720841 961.54574571 540.625 948.1875 C540.955 948.8475 541.285 949.5075 541.625 950.1875 C541.0042572 951.96815491 541.0042572 951.96815491 539.94116211 954.14868164 C539.54528397 954.96968353 539.14940582 955.79068542 538.74153137 956.63656616 C538.0786335 957.97855576 538.0786335 957.97855576 537.40234375 959.34765625 C536.95062302 960.27615387 536.49890228 961.20465149 536.03349304 962.1612854 C534.55268872 965.19563121 533.0587482 968.22324268 531.5625 971.25 C531.05636169 972.2788028 530.55022339 973.30760559 530.02874756 974.36758423 C522.3688914 989.92561198 514.52991977 1005.2970991 505.625 1020.1875 C504.98900879 1021.25403809 504.35301758 1022.32057617 503.69775391 1023.41943359 C480.26824653 1062.51010408 453.03118559 1099.29373964 422.00048828 1132.69873047 C420.62475891 1134.18776095 419.26213305 1135.68781644 417.90234375 1137.19140625 C411.89123237 1143.81429567 405.68878706 1150.22736728 399.375 1156.5625 C398.63048584 1157.31160645 397.88597168 1158.06071289 397.11889648 1158.83251953 C393.02533892 1162.91470483 388.84027644 1166.82406071 384.46044922 1170.59716797 C381.8516482 1172.85757364 379.33836863 1175.20973286 376.8125 1177.5625 C372.22075319 1181.79936417 367.51545886 1185.84155883 362.64453125 1189.7578125 C360.4183284 1191.54914261 358.21011884 1193.35488303 356.01171875 1195.1796875 C330.51591658 1216.27423749 302.49750639 1235.03646369 273.625 1251.1875 C272.5932666 1251.76773926 271.5615332 1252.34797852 270.49853516 1252.94580078 C241.33687782 1269.24189382 211.13709287 1282.29898536 179.67208862 1293.45635986 C177.59451591 1294.19838773 175.52272243 1294.95502825 173.45141602 1295.71435547 C163.28416605 1299.41534366 153.03157561 1302.46405763 142.5625 1305.1875 C141.75249542 1305.40027588 140.94249084 1305.61305176 140.10794067 1305.83227539 C115.93433612 1312.15590552 91.3936315 1316.43505344 66.625 1319.6875 C65.76261719 1319.80480469 64.90023437 1319.92210937 64.01171875 1320.04296875 C60.88582429 1320.4541543 57.75681137 1320.82398042 54.625 1321.1875 C53.59413773 1321.31457336 53.59413773 1321.31457336 52.54244995 1321.44421387 C37.29627666 1323.2900883 22.11382879 1323.49994159 6.7722168 1323.44824219 C3.39467648 1323.43695146 0.01745497 1323.44358061 -3.36007404 1323.45510387 C-29.32693236 1323.53050254 -55.11592793 1322.26142523 -80.8125 1318.375 C-81.70555847 1318.24333435 -82.59861694 1318.1116687 -83.51873779 1317.97601318 C-96.26921919 1316.09424764 -108.91801095 1314.00850164 -121.43701172 1310.90771484 C-124.81673741 1310.07921303 -128.20671621 1309.30083556 -131.59765625 1308.51953125 C-182.89955023 1296.52471896 -232.78320158 1276.58807549 -278.375 1250.1875 C-279.59268066 1249.48778076 -279.59268066 1249.48778076 -280.83496094 1248.77392578 C-320.41253464 1225.91783784 -357.25198872 1198.08387001 -390.59326172 1166.8515625 C-392.56704472 1165.00813897 -394.55084889 1163.17583777 -396.53515625 1161.34375 C-397.9611645 1160.02107803 -399.38694874 1158.6981645 -400.8125 1157.375 C-401.47491699 1156.76487061 -402.13733398 1156.15474121 -402.81982422 1155.52612305 C-406.4980677 1152.09729151 -409.89307478 1148.57096812 -413.10253906 1144.69799805 C-415.05375125 1142.3817759 -417.2091608 1140.30297085 -419.375 1138.1875 C-424.95939343 1132.70867166 -430.29849993 1127.13823101 -435.375 1121.1875 C-436.27928762 1120.14656143 -437.18429531 1119.10624817 -438.08984375 1118.06640625 C-444.64998424 1110.50866051 -450.95669334 1102.79378708 -457.07226562 1094.87255859 C-458.31836465 1093.26075659 -459.57304745 1091.65560175 -460.828125 1090.05078125 C-477.76416255 1068.27977814 -493.02066163 1045.40998976 -506.95410156 1021.60742188 C-508.32856557 1019.26658214 -509.72189938 1016.93784297 -511.1171875 1014.609375 C-531.928178 979.46920732 -548.55430295 941.83983857 -562.22802734 903.40527344 C-563.37260666 900.19421439 -564.53918163 896.99172006 -565.70703125 893.7890625 C-571.16678355 878.62860346 -575.52476057 863.2883985 -579.48583984 847.67382812 C-580.27917359 844.56322794 -581.09660581 841.46056658 -581.92578125 838.359375 C-590.26720156 806.75212527 -595.63790471 774.63135565 -599.375 742.1875 C-599.55603271 740.67518799 -599.55603271 740.67518799 -599.74072266 739.13232422 C-600.41213124 733.4914348 -600.92677805 727.85007198 -601.375 722.1875 C-601.46378418 721.16962402 -601.55256836 720.15174805 -601.64404297 719.10302734 C-604.97898622 679.89916668 -605.43143011 639.34116421 -601.375 600.1875 C-601.29252014 599.38521973 -601.21004028 598.58293945 -601.12506104 597.75634766 C-598.98993047 577.15216945 -596.75334959 556.51587349 -592.92724609 536.14697266 C-592.3111206 532.84517195 -591.72895701 529.53802205 -591.14453125 526.23046875 C-586.08918279 498.29311259 -579.33963955 470.44921165 -570.18237305 443.56054688 C-569.26148207 440.85384586 -568.36355895 438.13992337 -567.46484375 435.42578125 C-552.46307317 390.44542492 -533.18079161 347.20448037 -509.375 306.1875 C-508.89337402 305.35283203 -508.41174805 304.51816406 -507.91552734 303.65820312 C-492.42506996 276.9122447 -474.74447852 251.265292 -455.375 227.1875 C-454.84874023 226.52975586 -454.32248047 225.87201172 -453.78027344 225.19433594 C-447.80902158 217.73640717 -441.79315765 210.36742861 -435.33203125 203.32421875 C-433.57988515 201.41119696 -431.87799234 199.46734717 -430.1875 197.5 C-421.01897598 187.02168683 -411.32854819 177.04447432 -401.5 167.1875 C-400.62069824 166.30360596 -399.74139648 165.41971191 -398.83544922 164.5090332 C-394.39334992 160.07745223 -389.89126365 155.78644867 -385.13085938 151.69824219 C-382.72237273 149.6259792 -380.39616653 147.4683288 -378.0625 145.3125 C-372.66008543 140.3917822 -367.07331141 135.75957447 -361.375 131.1875 C-360.25479484 130.27524711 -359.13502295 129.36246197 -358.015625 128.44921875 C-335.13499232 109.85850942 -310.80527172 93.10165311 -285.375 78.1875 C-284.53243652 77.69217773 -283.68987305 77.19685547 -282.82177734 76.68652344 C-213.15906376 35.97076395 -136.17795057 10.73931563 -55.9375 2.5 C-54.77871338 2.38052002 -53.61992676 2.26104004 -52.42602539 2.13793945 C-34.97776593 0.44971369 -17.52065226 -0.01907015 0 0 Z " fill="#CF1739" transform="translate(2505.375,666.8125)"/>
<path d="M0 0 C0 322.08 0 644.16 0 976 C-7.78902351 973.40365883 -14.59512529 970.47199462 -21.875 966.8125 C-22.47694183 966.51098022 -23.07888367 966.20946045 -23.69906616 965.89880371 C-42.86751755 956.26505079 -61.41857633 945.29854396 -79 933 C-79.55300781 932.6174707 -80.10601563 932.23494141 -80.67578125 931.84082031 C-96.54077552 920.85385589 -111.61557729 908.85735209 -126 896 C-126.97066406 895.14148437 -127.94132812 894.28296875 -128.94140625 893.3984375 C-136.83507993 886.27205833 -144.34654802 878.75754489 -151.875 871.25 C-152.42138123 870.70629761 -152.96776245 870.16259521 -153.53070068 869.60241699 C-159.57235754 863.58322489 -165.49480013 857.52131625 -171 851 C-171.87681038 849.99019563 -172.7543694 848.98104061 -173.6328125 847.97265625 C-216.27417385 798.17984401 -248.67555713 740.5134788 -271 679 C-271.29567871 678.20045898 -271.59135742 677.40091797 -271.89599609 676.57714844 C-282.97595556 646.576213 -289.95097198 615.38180176 -295.47705078 583.93408203 C-295.91985094 581.44968786 -296.38695724 578.97266014 -296.87109375 576.49609375 C-299.71347735 561.49809858 -300.67051575 546.17766364 -301.84469604 530.97424316 C-301.98867578 529.1439549 -302.14435273 527.31459702 -302.30102539 525.48535156 C-303.25106681 513.37847873 -303.1992456 501.26233899 -303.1875 489.125 C-303.18689575 487.97449158 -303.1862915 486.82398315 -303.18566895 485.63861084 C-303.13883417 452.71776267 -301.07015244 420.39958543 -295 388 C-294.6634812 386.10947838 -294.32756116 384.2188501 -293.9921875 382.328125 C-291.7581391 370.03782339 -289.1144783 357.90557114 -286 345.8125 C-285.68015137 344.56178711 -285.36030273 343.31107422 -285.03076172 342.02246094 C-283.02499386 334.37768359 -280.70096709 326.90836966 -278.15429688 319.43212891 C-277.19939415 316.59286864 -276.30789754 313.75374206 -275.46875 310.87890625 C-269.602756 290.99105649 -261.73967881 271.7754727 -253 253 C-252.45827148 251.83291504 -251.91654297 250.66583008 -251.35839844 249.46337891 C-233.04788769 210.1636219 -210.33158651 173.67547506 -183 140 C-182.30261719 139.12730469 -181.60523437 138.25460937 -180.88671875 137.35546875 C-176.0593655 131.3620053 -171.01575177 125.64754131 -165.7734375 120.01953125 C-163.74191207 117.83396345 -161.78917717 115.59385771 -159.84765625 113.328125 C-155.6145259 108.47142553 -151.07532526 103.92488185 -146.51196289 99.3815918 C-145.06475615 97.93974779 -143.62297974 96.49262884 -142.18164062 95.04492188 C-136.95715368 89.81634888 -131.62283377 84.79685524 -126 80 C-124.84311919 78.97874793 -123.68813573 77.95534208 -122.53515625 76.9296875 C-113.35388301 68.82694127 -103.83179289 61.29568443 -94 54 C-93.27409668 53.45843262 -92.54819336 52.91686523 -91.80029297 52.35888672 C-21.40270456 0 -21.40270456 0 0 0 Z " fill="#0A6035" transform="translate(2476,837)"/>
<path d="M0 0 C0.33 0 0.66 0 1 0 C1 79.86 1 159.72 1 242 C4.3 242.99 7.6 243.98 11 245 C12.96220286 245.63397955 14.92130325 246.27777342 16.875 246.9375 C19.93937255 247.97074357 23.0036128 249.00117829 26.078125 250.00390625 C30.71717809 251.52051976 35.29822805 253.07955997 39.8125 254.9375 C43.98238924 256.64977336 48.21711479 258.10073625 52.5 259.5 C57.53288914 261.14439698 62.45091061 262.94637639 67.34375 264.96875 C71.86143049 266.72267301 76.48188339 268.17243205 81.09375 269.65625 C83.90689018 270.59235473 86.64478745 271.64950426 89.38867188 272.77197266 C95.76528451 275.33538315 102.22235044 277.6630664 108.6875 279.9921875 C109.99775296 280.46525468 111.30797362 280.93841131 112.61816406 281.41165161 C115.35423974 282.39945066 118.09077477 283.38596367 120.82763672 284.37158203 C124.27985872 285.6149675 127.73079047 286.86189082 131.18139648 288.10975266 C143.56617752 292.58677934 155.94638988 297.05581666 168.46473694 301.14904785 C172.91618545 302.61172813 177.25876178 304.23576057 181.58544922 306.03027344 C184.49975581 307.20071083 187.44768499 308.24665515 190.41015625 309.2890625 C191.50134766 309.67320312 192.59253906 310.05734375 193.71679688 310.453125 C195.98102104 311.24619826 198.24669399 312.03514529 200.51367188 312.8203125 C201.59326172 313.201875 202.67285156 313.5834375 203.78515625 313.9765625 C204.76363525 314.31768066 205.74211426 314.65879883 206.75024414 315.01025391 C209 316 209 316 210 318 C209.26608032 318.25642776 208.53216064 318.51285553 207.77600098 318.77705383 C200.8321547 321.20337915 193.88861521 323.63057954 186.94541168 326.05874348 C183.37653463 327.30681033 179.80754327 328.55454812 176.23828125 329.80151367 C172.788556 331.00673155 169.33914336 332.21284021 165.88993835 333.41954613 C164.57926849 333.87791335 163.26848958 334.33596891 161.95759583 334.79369545 C155.27667719 337.12670498 148.6205414 339.50134932 142 342 C139.17607706 343.01451225 136.34436792 344.00624645 133.51171875 344.99609375 C132.72787308 345.2709108 131.9440274 345.54572784 131.13642883 345.82887268 C128.65373881 346.69923472 126.17065965 347.56847882 123.6875 348.4375 C109.96920228 353.23458854 109.96920228 353.23458854 96.29711914 358.16137695 C92.83253075 359.42621499 89.35458189 360.65214237 85.875 361.875 C84.40755024 362.39192186 82.94010238 362.90884911 81.47265625 363.42578125 C80.73418457 363.68568848 79.99571289 363.9455957 79.23486328 364.21337891 C75.59358419 365.49502641 71.95290804 366.77838063 68.3125 368.0625 C67.60399902 368.31241699 66.89549805 368.56233398 66.16552734 368.81982422 C60.6181967 370.77823303 55.07808215 372.75648754 49.5390625 374.73828125 C45.82089127 376.06385444 42.09837201 377.37660867 38.375 378.6875 C25.90545798 383.09340485 13.45456707 387.55194033 1 392 C0.67 471.86 0.34 551.72 0 634 C-2.69844155 630.62694806 -5.14378383 627.40787685 -7.51953125 623.8359375 C-8.19983398 622.81483887 -8.88013672 621.79374023 -9.58105469 620.74169922 C-10.32496863 619.61953167 -11.0687803 618.4972963 -11.8125 617.375 C-12.60439432 616.18369145 -13.39638925 614.99244977 -14.18847656 613.80126953 C-21.06806894 603.44495416 -27.88930657 593.0502203 -34.70697021 582.65307617 C-41.89602797 571.6901601 -49.14668556 560.77045527 -56.4375 549.875 C-63.47689572 539.35413049 -70.39328624 528.7704867 -77.18115234 518.08496094 C-82.59223013 509.58595776 -88.16363962 501.20091727 -93.76928711 492.8293457 C-100.33311914 483.02279332 -106.83116539 473.17374256 -113.3125 463.3125 C-113.81081329 462.55511536 -114.30912659 461.79773071 -114.82254028 461.01739502 C-116.25381899 458.84169972 -117.68377777 456.66514323 -119.11328125 454.48828125 C-119.53341492 453.84972702 -119.95354858 453.21117279 -120.38641357 452.55326843 C-123.32302119 448.0756138 -126.17803423 443.55070645 -129 439 C-133.19551334 439.52443917 -136.83099022 440.64691135 -140.76953125 442.1550293 C-144.56989762 443.59472588 -148.41201521 444.91458321 -152.25 446.25 C-153.10754883 446.54938477 -153.96509766 446.84876953 -154.84863281 447.15722656 C-158.48064483 448.42519144 -162.11340214 449.69101497 -165.74609375 450.95703125 C-168.41432339 451.88727487 -171.08216859 452.81861504 -173.75 453.75 C-174.55856445 454.03133789 -175.36712891 454.31267578 -176.20019531 454.60253906 C-180.55509523 456.12303887 -184.88519407 457.6948671 -189.19995117 459.32568359 C-191.63027987 460.23610918 -194.07790823 461.0912696 -196.53125 461.9375 C-197.50707031 462.27523438 -198.48289062 462.61296875 -199.48828125 462.9609375 C-201.49609375 463.65364583 -203.50390625 464.34635417 -205.51171875 465.0390625 C-206.48753906 465.37679688 -207.46335937 465.71453125 -208.46875 466.0625 C-209.77489258 466.51302734 -209.77489258 466.51302734 -211.10742188 466.97265625 C-213.33823156 467.76496273 -215.5534873 468.58112539 -217.76757812 469.41796875 C-222.23679806 471.10145825 -226.73965469 472.68063712 -231.25 474.25 C-232.53632324 474.69907715 -232.53632324 474.69907715 -233.84863281 475.15722656 C-237.48064483 476.42519144 -241.11340214 477.69101497 -244.74609375 478.95703125 C-247.41432339 479.88727487 -250.08216859 480.81861504 -252.75 481.75 C-253.55856445 482.03133789 -254.36712891 482.31267578 -255.20019531 482.60253906 C-260.16058085 484.3344423 -265.08489247 486.14348823 -270 488 C-272.5184897 488.90345821 -275.03826641 489.80048948 -277.5625 490.6875 C-278.27140381 490.93733643 -278.98030762 491.18717285 -279.71069336 491.44458008 C-284.11598099 492.99444079 -288.52565896 494.53139835 -292.9375 496.0625 C-293.95255615 496.41481689 -294.9676123 496.76713379 -296.01342773 497.13012695 C-298.00216726 497.81979233 -299.9912468 498.50847825 -301.98071289 499.19604492 C-307.35058701 501.05705901 -312.68718261 502.98253139 -318 505 C-321.28930031 506.23556612 -324.58166753 507.46272807 -327.875 508.6875 C-328.72835937 509.00783203 -329.58171875 509.32816406 -330.4609375 509.65820312 C-331.275625 509.96048828 -332.0903125 510.26277344 -332.9296875 510.57421875 C-334.03159424 510.98546997 -334.03159424 510.98546997 -335.15576172 511.4050293 C-337 512 -337 512 -339 512 C-337.62846149 508.21808441 -335.89354836 505.12917513 -333.625 501.8125 C-332.91601562 500.76707031 -332.20703125 499.72164062 -331.4765625 498.64453125 C-331.0837207 498.06783691 -330.69087891 497.49114258 -330.28613281 496.89697266 C-327.83405819 493.28030222 -325.42058611 489.63778417 -323 486 C-322.04181714 484.56239969 -321.08348334 483.12489999 -320.125 481.6875 C-318.47787801 479.21695048 -316.8309267 476.74628774 -315.18432617 474.27539062 C-311.99640446 469.49211387 -308.80686799 464.70993428 -305.61221313 459.93115234 C-294.51355232 443.32755348 -283.48048765 426.68199879 -272.5 410 C-261.13445186 392.73300182 -249.71014172 375.50664458 -238.21972656 358.32250977 C-236.13066442 355.19557987 -234.04739154 352.06486412 -231.96484375 348.93359375 C-229.53167088 345.27789095 -227.07497105 341.64011 -224.5922699 338.01785278 C-223.05832955 335.77292159 -221.53961847 333.51793934 -220.0234375 331.26098633 C-219.24636773 330.11173582 -218.46262763 328.96697199 -217.67285156 327.82641602 C-216.51181154 326.14669913 -215.37514502 324.45264756 -214.2421875 322.75390625 C-213.5704248 321.76720947 -212.89866211 320.7805127 -212.20654297 319.76391602 C-210.70232332 317.07971932 -210.70232332 317.07971932 -211.63500977 314.40185547 C-212.90793631 312.16199653 -214.17894803 309.96701346 -215.59765625 307.81640625 C-216.13849854 306.99156738 -216.67934082 306.16672852 -217.23657227 305.31689453 C-218.14040649 303.95346924 -218.14040649 303.95346924 -219.0625 302.5625 C-219.70952881 301.57878418 -220.35655762 300.59506836 -221.02319336 299.58154297 C-222.50451833 297.33030879 -223.9875274 295.08026243 -225.47265625 292.83154297 C-228.25040217 288.62354932 -231.01569879 284.4074202 -233.78125 280.19140625 C-244.52415719 263.82212613 -255.32474823 247.49375882 -266.21224976 231.2203064 C-271.84930881 222.78974228 -277.39513527 214.31830706 -282.76269531 205.71264648 C-287.04117954 198.87387496 -291.51626596 192.17389425 -296.00732422 185.47338867 C-304.246517 173.16848818 -312.37147459 160.78841475 -320.50805664 148.41552734 C-321.07013321 147.5611911 -321.63220978 146.70685486 -322.21131897 145.82662964 C-323.30769395 144.15950737 -324.4032046 142.49181631 -325.49778748 140.82351685 C-327.83519915 137.26518324 -330.18200724 133.71623214 -332.58984375 130.20507812 C-333.32332031 129.13193359 -334.05679688 128.05878906 -334.8125 126.953125 C-335.43769531 126.05239258 -336.06289062 125.15166016 -336.70703125 124.22363281 C-338 122 -338 122 -338 119 C-337.06655762 119.35396851 -337.06655762 119.35396851 -336.11425781 119.71508789 C-319.96606172 125.82918012 -303.78261027 131.80179586 -287.375 137.1875 C-283.92167519 138.32415921 -280.54981904 139.55527423 -277.1875 140.9375 C-271.85211706 143.12835773 -266.39296315 144.89095968 -260.90625 146.65625 C-258.04399008 147.6081233 -255.25790073 148.68687812 -252.46533203 149.82666016 C-246.90719864 152.06130557 -241.28937878 154.10247152 -235.6484375 156.1171875 C-234.59073151 156.49682648 -233.53302551 156.87646545 -232.44326782 157.26760864 C-229.08779024 158.47178652 -225.73147258 159.67359861 -222.375 160.875 C-217.96563603 162.45431083 -213.5567576 164.03496522 -209.1484375 165.6171875 C-208.08930145 165.9971286 -207.03016541 166.3770697 -205.93893433 166.76852417 C-198.69116859 169.37477554 -191.4731494 172.04937903 -184.27929688 174.80078125 C-179.88360706 176.40825805 -175.42161344 177.73887615 -170.9375 179.07421875 C-167.44451048 180.17506784 -164.10637032 181.52992764 -160.7265625 182.93359375 C-156.72328584 184.49934522 -152.63696941 185.80285357 -148.55200195 187.13549805 C-143.96759917 188.64376364 -139.49698768 190.32942143 -135.05078125 192.203125 C-133.04908367 192.98092749 -131.08503317 193.498526 -129 194 C-128.70108353 193.54425095 -128.40216705 193.08850189 -128.0941925 192.61894226 C-113.77095771 170.78613096 -99.38377352 149.00121377 -84.75 127.375 C-75.67665167 113.96582414 -66.6745364 100.52172958 -57.87109375 86.93359375 C-54.76472594 82.14860626 -51.60675276 77.39966775 -48.4375 72.65625 C-43.91236534 65.88312496 -39.41639779 59.09151432 -34.94140625 52.28515625 C-34.33836166 51.36830551 -33.73531708 50.45145477 -33.11399841 49.50682068 C-30.6454271 45.7530901 -28.17736374 41.99902969 -25.71166992 38.2434082 C-19.08947582 28.15907534 -12.43659007 18.0973713 -5.65234375 8.12109375 C-5.0968837 7.29996597 -4.54142365 6.4788382 -3.96913147 5.63282776 C-3.46103439 4.88959763 -2.95293732 4.14636749 -2.42944336 3.38061523 C-1.98273788 2.72504135 -1.53603241 2.06946747 -1.07579041 1.39402771 C-0.72077957 0.93399857 -0.36576874 0.47396942 0 0 Z " fill="#D01739" transform="translate(2837,1001)"/>
<path d="M0 0 C0.33 0.66 0.66 1.32 1 2 C-0.5059226 5.98528688 -2.40673536 9.79689834 -4.2590332 13.6315918 C-5.1820132 15.55108925 -6.08072084 17.48072927 -6.97851562 19.41210938 C-7.56104717 20.63090379 -8.14498604 21.84902676 -8.73046875 23.06640625 C-9.26051514 24.17959229 -9.79056152 25.29277832 -10.33666992 26.43969727 C-12 29 -12 29 -14.0637207 29.80444336 C-14.70269287 29.86897705 -15.34166504 29.93351074 -16 30 C-17.3479743 30.63654342 -18.68596724 31.29605388 -20 32 C-16.73664971 26.1147442 -13.13001092 20.49891426 -9.4375 14.875 C-8.28954816 13.12293048 -7.14238733 11.37034239 -5.99609375 9.6171875 C-5.49263428 8.85003418 -4.9891748 8.08288086 -4.47045898 7.29248047 C-2.92958565 4.89022236 -1.45675132 2.45401775 0 0 Z " fill="#D22040" transform="translate(3046,1615)"/>
<path d="M0 0 C0.66 0 1.32 0 2 0 C2.28721924 0.57967529 2.57443848 1.15935059 2.87036133 1.7565918 C4.18227102 4.40129389 5.49735471 7.0444055 6.8125 9.6875 C7.26431641 10.59951172 7.71613281 11.51152344 8.18164062 12.45117188 C9.98086823 16.06276013 11.74711547 19.59528004 13.88671875 23.01953125 C14.25410156 23.67308594 14.62148437 24.32664062 15 25 C14.67 25.66 14.34 26.32 14 27 C12.24946233 24.45870221 10.49955494 21.91697423 8.75 19.375 C8.25886719 18.66214844 7.76773438 17.94929687 7.26171875 17.21484375 C6.29257733 15.80635822 5.32606123 14.39606232 4.36230469 12.98388672 C3.49954657 11.72747589 2.62639746 10.47808506 1.73925781 9.23876953 C-1.02696166 5.31005906 -1.02696166 5.31005906 -0.75 2.125 C-0.5025 1.42375 -0.255 0.7225 0 0 Z " fill="#D32646" transform="translate(3019,988)"/>
<path d="M0 0 C0.33 0.66 0.66 1.32 1 2 C0.28735352 3.97119141 0.28735352 3.97119141 -0.87109375 6.3515625 C-1.48500977 7.62773438 -1.48500977 7.62773438 -2.11132812 8.9296875 C-2.54896484 9.81914063 -2.98660156 10.70859375 -3.4375 11.625 C-3.87126953 12.5221875 -4.30503906 13.419375 -4.75195312 14.34375 C-5.82762755 16.56602245 -6.91054931 18.78445719 -8 21 C-8.33 20.01 -8.66 19.02 -9 18 C-9.66 17.67 -10.32 17.34 -11 17 C-9.54197823 14.72896609 -8.08359508 12.45816565 -6.625 10.1875 C-6.2125 9.54490234 -5.8 8.90230469 -5.375 8.24023438 C-3.60185508 5.48042011 -1.81964862 2.72947292 0 0 Z " fill="#D73C59" transform="translate(3046,1615)"/>
<path d="M0 0 C0 3 0 3 -1.1875 4.421875 C-1.785625 4.94265625 -2.38375 5.4634375 -3 6 C-3.78375 6.68578125 -4.5675 7.3715625 -5.375 8.078125 C-6.24125 8.79484375 -7.1075 9.5115625 -8 10.25 C-9.299375 11.34054687 -9.299375 11.34054687 -10.625 12.453125 C-11.40875 12.96359375 -12.1925 13.4740625 -13 14 C-13.99 13.67 -14.98 13.34 -16 13 C-13.71046156 11.01832378 -11.41850202 9.03957953 -9.125 7.0625 C-8.47402344 6.49853516 -7.82304687 5.93457031 -7.15234375 5.35351562 C-6.21455078 4.54624023 -6.21455078 4.54624023 -5.2578125 3.72265625 C-4.6817627 3.22515869 -4.10571289 2.72766113 -3.51220703 2.21508789 C-2 1 -2 1 0 0 Z " fill="#D22141" transform="translate(2944,1737)"/>
<path d="M0 0 C0 3.7185142 -0.85912168 4.31804606 -3.3125 7 C-3.92738281 7.680625 -4.54226562 8.36125 -5.17578125 9.0625 C-5.77777344 9.701875 -6.37976562 10.34125 -7 11 C-7.52980469 11.5775 -8.05960938 12.155 -8.60546875 12.75 C-10 14 -10 14 -12 14 C-10.41332422 10.09714233 -7.86649519 7.66479018 -4.875 4.75 C-3.96492188 3.85796875 -3.05484375 2.9659375 -2.1171875 2.046875 C-1.41851563 1.37140625 -0.71984375 0.6959375 0 0 Z " fill="#D63351" transform="translate(2973,1709)"/>
<path d="M0 0 C0.66 0 1.32 0 2 0 C3.03046722 1.78614318 4.04913236 3.57910018 5.0625 5.375 C5.63097656 6.37273438 6.19945313 7.37046875 6.78515625 8.3984375 C7.18605469 9.25695312 7.58695313 10.11546875 8 11 C7.67 11.66 7.34 12.32 7 13 C5.82479354 11.40207898 4.66008753 9.79643092 3.5 8.1875 C2.8503125 7.29417969 2.200625 6.40085937 1.53125 5.48046875 C0 3 0 3 0 0 Z " fill="#D94660" transform="translate(3026,1002)"/>
<path d="M0 0 C0.66 0.99 1.32 1.98 2 3 C0.35 4.98 -1.3 6.96 -3 9 C-3.66 8.67 -4.32 8.34 -5 8 C-3.35 5.36 -1.7 2.72 0 0 Z " fill="#D22242" transform="translate(2581,1386)"/>
</svg>
