<?xml version="1.0" standalone="no"?>
<!DOCTYPE svg PUBLIC "-//W3C//DTD SVG 20010904//EN"
 "http://www.w3.org/TR/2001/REC-SVG-20010904/DTD/svg10.dtd">
<svg version="1.0" xmlns="http://www.w3.org/2000/svg"
 width="512.000000pt" height="512.000000pt" viewBox="0 0 512.000000 512.000000"
 preserveAspectRatio="xMidYMid meet">

<g transform="translate(0.000000,512.000000) scale(0.100000,-0.100000)"
fill="#000000" stroke="none">
<path d="M1414 5106 c-331 -76 -489 -452 -311 -743 26 -41 290 -312 911 -933
l876 -875 -884 -885 c-931 -932 -912 -911 -950 -1040 -21 -70 -21 -199 -1
-270 23 -78 87 -181 142 -230 64 -57 168 -106 256 -120 94 -16 193 -2 289 41
72 32 89 48 1103 1059 567 564 1051 1043 1077 1063 183 145 225 460 87 666
-23 34 -60 76 -82 94 -23 18 -505 494 -1072 1059 -690 688 -1046 1036 -1080
1055 -108 63 -245 85 -361 59z"/>
</g>
</svg>
