<svg xmlns="http://www.w3.org/2000/svg" version="1.1" viewBox="448 458 1154 624">
<path transform="translate(1014,458)" d="m0 0h42l15 2 15 5 19 8 13 9 9 7 12 12 7 10 10 18 8 21 4 15 2 19v31l-2 16-5 15-9 19-9 10-5 5-7 5-21 8-4 1-23 1-23-1-15-4-10-6-3-4-1-7 3-11 10-17 11-15 8-10 8-11 7-10 7-16 2-11-1-9-8-12-3-3-27-9-22-3h-40l-22 2-16 3-19 6-9 6-4 5-2 7-1 13 2 13 2 4 14 9 9 3 13 1h23l9 3 2 5-4 8-7 10-10 11-8 11-5 6-8 19-2 9v9l4 13 6 10 9 6 5 4 26 7 18 3 30 2 33 1 11 2 6 5 2 6v11l-4 6-13 10-28 8-12 2-11 1h-17l-15-1-3-1-15-2-12-3-25-5-13-5-17-6-7-2-5-4-6-3-3-3-9-3-13-10-9-7-10-9-11-14-8-11-5-12-5-11-4-15v-45l4-16 12-31 7-11 6-10 8-11 8-10 11-12 8-6 5-5 12-9 9-7 9-5 10-6 26-12 38-11 14-3z" fill="#373F41"/>
<path transform="translate(788,881)" d="m0 0h35l18 1 13 24 12 20 4 8 7 11 7 13 1 1 5-30 4-40 2-7 33-1 5 1-5 43-4 32-6 35-2 18-2 1h-43l-5-8-8-15-6-10-15-29-7-11-2-2-4 31-7 43-1 1h-38l-2-1 3-21 7-41 6-49 1-10-7-6z" fill="#06B86B"/>
<path transform="translate(1456,881)" d="m0 0h52l1 2-7 44 1 4h48l1-8 5-28v-6l-6-6v-2h50l1 3-3 25-5 38-7 45-2 18-1 1h-43l-1-5 6-34 2-18h-49l-5 37-3 18-2 2h-42l-1-1 1-14 4-27 7-42 4-39v-2l-5-2z" fill="#06B86B"/>
<path transform="translate(1130,881)" d="m0 0h98l26 1-1 14-2 7-70 1-6 27h67l1 1-1 20-1 1-70 1-2 19-1 14 75 1-1 22-2 1h-122v-11l5-35 6-34 4-35v-8l-4-6z" fill="#06B86B"/>
<path transform="translate(634,881)" d="m0 0h124l1 1-1 15-2 6-70 1-6 27h68l1 2-2 18-1 2h-70l-1 13-2 18-1 4h76v11l-2 11-1 1h-121v-11l4-35 7-40 4-31-1-7-4-4z" fill="#06B86B"/>
<path transform="translate(469,881)" d="m0 0h137l-2 11-3 13-5 5-8 6-8 7-6 5-5 5-13 12-14 12-10 9-11 9-12 11 2 1 79 1-1 16-2 7h-137l-2-1 3-21 5-4 6-5 4-5 9-7 12-11 11-9 10-9 13-11 14-12 14-11 1-2h-87l1-9 3-12z" fill="#06B86B"/>
<path transform="translate(1387,881)" d="m0 0h38l2 1-2 18-1 3h-95l-5 34-5 51 85-1 5-5 4-2-1 12-2 18-2 1h-122l-9-2-5-7v-10l8-48 6-53 2-9z" fill="#06B86B"/>
<path transform="translate(1151,729)" d="m0 0h12l21 7 6 4 10 8 5 5 10 12 10 17 7 12 3 10-2 4-25 9-14 4-6 1h-21l-12-3-9-4-14-7-12-11-6-9-5-10-3-10-1-12-7-8-3-3 1-4 6 1 4 4 7-1 5-3 5-4 17-6z" fill="#373F41"/>
<path transform="translate(1049,881)" d="m0 0h46l2 2-3 19-1 1h-47l-1 16-3 28-5 27-5 34-1 3h-43l-1-2 4-26 5-41 4-23 3-16h-49v-11l1-9 1-1z" fill="#06B86B"/>
<path transform="translate(1096,741)" d="m0 0 6 1 4 4 7-1 4-1 7 12 13 12 19 13 14 8 13 6 23 7 16 4 8 1 1 2-33 11-10 2h-21l-12-3-9-4-14-7-12-11-6-9-5-10-3-10-1-12-7-8-3-3z" fill="#06B86B"/>
<path transform="translate(478,1060)" d="m0 0h241l1 5h-243z" fill="#06B86B"/>
<path transform="translate(1331,1060)" d="m0 0h241l1 5h-242l-1-4z" fill="#06B86B"/>
<path transform="translate(767,1047)" d="m0 0h6l3 2 5 25 2-1 6-18 2-7 7-1 2 2v32h-5l-1-1-1-23-4 17-3 6-1 1h-5l-4-9-4-15-1 24h-5l-1-1v-31z" fill="#08B86C"/>
<path transform="translate(869,1047)" d="m0 0 7 1 4 19 1 2 7-21 4-1 3 7 5 16 5-22 7-1-2 10-7 23-4 1-3-4-5-18-7 20-2 2-4-1-5-15-4-14z" fill="#06B86B"/>
<path transform="translate(1177,1047)" d="m0 0h17l7 2 2 7-1 5 1 14 1 6h-6l-2-5-1-8h-13v12l-5 1-1-1v-32zm5 4v11h14v-9l-2-2z" fill="#06B86B"/>
<path transform="translate(948,1047)" d="m0 0h16l8 2 2 6-1 13 2 13h-6l-1-1-1-12-15-1v14h-5l-1-15v-12zm5 4-1 1v10h15v-10l-2-1z" fill="#06B86B"/>
<path transform="translate(1114,1047)" d="m0 0h13l5 3 4 7 1 11-3 7-5 5-2 1h-13l-6-4-3-4-1-4v-8l3-10 4-3zm3 4-5 4-3 9 1 7 6 5h9l5-3 1-2v-13l-4-6-2-1z" fill="#06B86B"/>
<path transform="translate(1034,1047)" d="m0 0h13l6 3 2 6 1 9v14l-2 1-7 1h-14l-5-5-3-7v-9l5-10zm5 3-5 3-3 4-1 3v9l3 6 5 2 8-1 4-2 1-5-1-2-8-1v-3h9l3-3-7-8-5-2z" fill="#06B86B"/>
<path transform="translate(844,1047)" d="m0 0h12l7 3 3 6 1 5v8l-3 7-5 4-10 2-7-2-6-7-2-7 1-8 4-8zm2 4-4 3-2 7v7l2 5 4 3 5 1 7-3 3-3 1-3v-8l-4-6-4-3z" fill="#06B86B"/>
<path transform="translate(1289,1047)" d="m0 0h24v4h-19v10h17l1 4h-18l1 10 18 1 1 4-1 1h-24l-1-1v-32z" fill="#06B86B"/>
<path transform="translate(917,1047)" d="m0 0h24v4h-20v10h19l1 4-20 1v9l21 1v5h-26l-1-2v-18l1-13z" fill="#06B86B"/>
<path transform="translate(1016,1047)" d="m0 0h2l1 32-1 2-5-1-8-11-7-13-1 25h-4l-1-5v-17l1-11h7l3 5 6 11 4 6 2 1v-23z" fill="#06B66A"/>
<path transform="translate(807,1047)" d="m0 0h18l5 4 1 6-2 7-5 3h-13v14h-5l-1-1v-31zm5 4-1 1v9l1 1h12l3-3-1-5-3-3z" fill="#06B86B"/>
<path transform="translate(737,1047)" d="m0 0h24v4h-20v10h18l1 4-18 1v9l20 1v5h-25z" fill="#06B86B"/>
<path transform="translate(1165,1047)" d="m0 0 4 1v24l-3 6-5 3h-13l-5-6-1-12 1-15h3l1 22 1 5 9 1 4-2 1-2 1-24z" fill="#06B86B"/>
<path transform="translate(1261,1047)" d="m0 0h23v4l-17 1-1 9h16l1 4-16 1-1 15h-6v-33z" fill="#06B86B"/>
<path transform="translate(1073,1047)" d="m0 0h6l4 9 3 5 4-2 4-9 3-3 5 1-6 11-4 8-2 14h-5l-2-14-5-10-5-8z" fill="#06B86B"/>
<path transform="translate(1221,1051)" d="m0 0 4 1 1 1 1 22 16 1 1 4-1 1h-22z" fill="#06B86B"/>
<path transform="translate(1249,1047)" d="m0 0 4 1 1 2-1 31h-5l-1-1v-32z" fill="#06B86B"/>
<path transform="translate(982,1047)" d="m0 0 4 1v33h-5l-1-1v-32z" fill="#06B86B"/>
</svg>